HIERARCHY
ROOT Hips
{
	OFFSET 0.000000 83.214638 0.000000
	CHANNELS 6 Xposition Yposition Zposition Xrotation Yrotation Zrotation
	JOINT Pelvis
	{
		OFFSET 0.000000 0.000000 0.000000
		CHANNELS 3 Xrotation Yrotation Zrotation
		JOINT LeftUpLeg
		{
			OFFSET 8.479700 -4.795502 -0.379100
			CHANNELS 3 Xrotation Yrotation Zrotation
			JOINT LeftLeg
			{
				OFFSET 0.024144 -32.555107 0.112900
				CHANNELS 3 Xrotation Yrotation Zrotation
				JOINT LeftFoot
				{
					OFFSET -0.024144 -32.638630 -3.012600
					CHANNELS 3 Xrotation Yrotation Zrotation
					JOINT LeftToeBase
					{
						OFFSET 0.970200 -13.225400 11.864200
						CHANNELS 3 Xrotation Yrotation Zrotation
						End Site
						{
							OFFSET 0.000000 12.319262 0.000000
						}
					}
					JOINT LFootTongue
					{
						OFFSET 1.142400 -1.059800 6.665200
						CHANNELS 3 Xrotation Yrotation Zrotation
						End Site
						{
							OFFSET 0.000000 12.319262 0.000000
						}
					}
				}
				JOINT LeftPantLeg
				{
					OFFSET 0.918482 -16.533964 -2.284700
					CHANNELS 3 Xrotation Yrotation Zrotation
					End Site
					{
						OFFSET 0.350399 24.744368 0.000000
					}
				}
			}
		}
		JOINT RightUpLeg
		{
			OFFSET -8.479700 -4.795502 -0.379100
			CHANNELS 3 Xrotation Yrotation Zrotation
			JOINT RightLeg
			{
				OFFSET -0.023144 -32.555092 0.112900
				CHANNELS 3 Xrotation Yrotation Zrotation
				JOINT RightFoot
				{
					OFFSET 0.023144 -32.638641 -3.012700
					CHANNELS 3 Xrotation Yrotation Zrotation
					JOINT RightToeBase
					{
						OFFSET -0.970200 -13.225400 11.864200
						CHANNELS 3 Xrotation Yrotation Zrotation
						End Site
						{
							OFFSET 0.000000 12.319244 0.000000
						}
					}
					JOINT RFootTongue
					{
						OFFSET -1.142200 -1.059800 6.665200
						CHANNELS 3 Xrotation Yrotation Zrotation
						End Site
						{
							OFFSET 0.000000 12.319243 0.000000
						}
					}
				}
				JOINT RightPantLeg
				{
					OFFSET -0.919482 -16.533978 -2.284800
					CHANNELS 3 Xrotation Yrotation Zrotation
					End Site
					{
						OFFSET -0.350400 24.744419 0.000000
					}
				}
			}
		}
	}
	JOINT Spine
	{
		OFFSET 0.000000 7.722000 1.166200
		CHANNELS 3 Xrotation Yrotation Zrotation
		JOINT Spine1
		{
			OFFSET 0.000000 12.024101 0.248800
			CHANNELS 3 Xrotation Yrotation Zrotation
			JOINT Spine2
			{
				OFFSET 0.000000 11.502998 -0.491200
				CHANNELS 3 Xrotation Yrotation Zrotation
				JOINT Neck
				{
					OFFSET 0.000000 18.430702 -3.123100
					CHANNELS 3 Xrotation Yrotation Zrotation
					JOINT Head
					{
						OFFSET 0.000000 9.051102 1.034000
						CHANNELS 3 Xrotation Yrotation Zrotation
						JOINT HairB
						{
							OFFSET 0.208400 24.786102 24.822300
							CHANNELS 3 Xrotation Yrotation Zrotation
							End Site
							{
								OFFSET 0.000000 32.263779 0.000000
							}
						}
						JOINT HairA
						{
							OFFSET -7.081100 24.428299 23.196600
							CHANNELS 3 Xrotation Yrotation Zrotation
							End Site
							{
								OFFSET 0.000000 32.263779 0.000000
							}
						}
						JOINT Hat
						{
							OFFSET 16.728800 15.048294 -15.439601
							CHANNELS 3 Xrotation Yrotation Zrotation
							End Site
							{
								OFFSET 0.000000 32.263779 0.000000
							}
						}
					}
				}
				JOINT LeftShoulder
				{
					OFFSET 6.197800 13.665199 -4.064700
					CHANNELS 3 Xrotation Yrotation Zrotation
					JOINT LeftArm
					{
						OFFSET 7.778100 -0.187103 -1.709300
						CHANNELS 3 Xrotation Yrotation Zrotation
						JOINT LeftForeArm
						{
							OFFSET 22.049376 0.000000 0.000000
							CHANNELS 3 Xrotation Yrotation Zrotation
							JOINT LeftHand
							{
								OFFSET 23.009392 0.000000 0.000000
								CHANNELS 3 Xrotation Yrotation Zrotation
								JOINT LeftHandThumb1
								{
									OFFSET 3.507191 -2.063065 3.133727
									CHANNELS 3 Xrotation Yrotation Zrotation
									JOINT LeftHandThumb2
									{
										OFFSET 3.101337 -1.790558 1.790558
										CHANNELS 3 Xrotation Yrotation Zrotation
										JOINT LeftHandThumb3
										{
											OFFSET 3.058640 -1.765907 1.765906
											CHANNELS 3 Xrotation Yrotation Zrotation
											End Site
											{
												OFFSET -0.415260 3.926476 -0.049563
											}
										}
									}
								}
								JOINT LeftHandIndex1
								{
									OFFSET 11.334419 -0.901459 3.706815
									CHANNELS 3 Xrotation Yrotation Zrotation
									JOINT LeftHandIndex2
									{
										OFFSET 3.283112 0.000000 0.000000
										CHANNELS 3 Xrotation Yrotation Zrotation
										JOINT LeftHandIndex3
										{
											OFFSET 3.323853 0.000000 0.000000
											CHANNELS 3 Xrotation Yrotation Zrotation
											End Site
											{
												OFFSET -1.135597 3.097809 0.402452
											}
										}
									}
								}
								JOINT LeftHandMiddle1
								{
									OFFSET 11.335861 0.000000 0.000000
									CHANNELS 3 Xrotation Yrotation Zrotation
									JOINT LeftHandMiddle2
									{
										OFFSET 3.410492 0.000000 0.000000
										CHANNELS 3 Xrotation Yrotation Zrotation
										JOINT LeftHandMiddle3
										{
											OFFSET 3.312172 0.000000 0.000000
											CHANNELS 3 Xrotation Yrotation Zrotation
											End Site
											{
												OFFSET -1.150200 3.080154 0.400270
											}
										}
									}
								}
								JOINT LeftHandRing1
								{
									OFFSET 11.514786 -0.013176 -3.003090
									CHANNELS 3 Xrotation Yrotation Zrotation
									JOINT LeftHandRing2
									{
										OFFSET 3.053307 0.000000 0.000000
										CHANNELS 3 Xrotation Yrotation Zrotation
										JOINT LeftHandRing3
										{
											OFFSET 3.295807 0.000000 0.000000
											CHANNELS 3 Xrotation Yrotation Zrotation
											End Site
											{
												OFFSET -1.281006 3.013344 0.375733
											}
										}
									}
								}
								JOINT LeftHandPinky1
								{
									OFFSET 10.518692 -0.960396 -5.730441
									CHANNELS 3 Xrotation Yrotation Zrotation
									JOINT LeftHandPinky2
									{
										OFFSET 2.861649 0.000000 0.000000
										CHANNELS 3 Xrotation Yrotation Zrotation
										JOINT LeftHandPinky3
										{
											OFFSET 2.863380 0.000000 0.000000
											CHANNELS 3 Xrotation Yrotation Zrotation
											End Site
											{
												OFFSET -0.843597 2.711159 0.369971
											}
										}
									}
								}
							}
							JOINT LSleeve
							{
								OFFSET 6.676277 -0.344902 -1.011730
								CHANNELS 3 Xrotation Yrotation Zrotation
								End Site
								{
									OFFSET 0.000000 14.885353 0.000000
								}
							}
						}
					}
				}
				JOINT RightShoulder
				{
					OFFSET -6.197800 13.665199 -4.064700
					CHANNELS 3 Xrotation Yrotation Zrotation
					JOINT RightArm
					{
						OFFSET -7.778100 -0.187103 -1.709300
						CHANNELS 3 Xrotation Yrotation Zrotation
						JOINT RightForeArm
						{
							OFFSET -22.049376 0.000000 0.000000
							CHANNELS 3 Xrotation Yrotation Zrotation
							JOINT RightHand
							{
								OFFSET -23.009392 0.000000 0.000000
								CHANNELS 3 Xrotation Yrotation Zrotation
								JOINT RightHandThumb1
								{
									OFFSET -3.507191 -2.063065 3.133727
									CHANNELS 3 Xrotation Yrotation Zrotation
									JOINT RightHandThumb2
									{
										OFFSET -3.101337 -1.790558 1.790558
										CHANNELS 3 Xrotation Yrotation Zrotation
										JOINT RightHandThumb3
										{
											OFFSET -3.058640 -1.765907 1.765906
											CHANNELS 3 Xrotation Yrotation Zrotation
											End Site
											{
												OFFSET 0.415260 3.926476 -0.049563
											}
										}
									}
								}
								JOINT RightHandIndex1
								{
									OFFSET -11.334419 -0.901459 3.706815
									CHANNELS 3 Xrotation Yrotation Zrotation
									JOINT RightHandIndex2
									{
										OFFSET -3.283112 0.000000 0.000000
										CHANNELS 3 Xrotation Yrotation Zrotation
										JOINT RightHandIndex3
										{
											OFFSET -3.323853 0.000000 0.000000
											CHANNELS 3 Xrotation Yrotation Zrotation
											End Site
											{
												OFFSET 1.135597 3.097809 0.402452
											}
										}
									}
								}
								JOINT RightHandMiddle1
								{
									OFFSET -11.335861 0.000000 0.000000
									CHANNELS 3 Xrotation Yrotation Zrotation
									JOINT RightHandMiddle2
									{
										OFFSET -3.410492 0.000000 0.000000
										CHANNELS 3 Xrotation Yrotation Zrotation
										JOINT RightHandMiddle3
										{
											OFFSET -3.312172 0.000000 0.000000
											CHANNELS 3 Xrotation Yrotation Zrotation
											End Site
											{
												OFFSET 1.150200 3.080154 0.400270
											}
										}
									}
								}
								JOINT RightHandRing1
								{
									OFFSET -11.514786 -0.013176 -3.003090
									CHANNELS 3 Xrotation Yrotation Zrotation
									JOINT RightHandRing2
									{
										OFFSET -3.053307 0.000000 0.000000
										CHANNELS 3 Xrotation Yrotation Zrotation
										JOINT RightHandRing3
										{
											OFFSET -3.295807 0.000000 0.000000
											CHANNELS 3 Xrotation Yrotation Zrotation
											End Site
											{
												OFFSET 1.281006 3.013344 0.375733
											}
										}
									}
								}
								JOINT RightHandPinky1
								{
									OFFSET -10.518692 -0.960396 -5.730441
									CHANNELS 3 Xrotation Yrotation Zrotation
									JOINT RightHandPinky2
									{
										OFFSET -2.861649 0.000000 0.000000
										CHANNELS 3 Xrotation Yrotation Zrotation
										JOINT RightHandPinky3
										{
											OFFSET -2.863380 0.000000 0.000000
											CHANNELS 3 Xrotation Yrotation Zrotation
											End Site
											{
												OFFSET 0.843597 2.711159 0.369971
											}
										}
									}
								}
							}
							JOINT RSleeve
							{
								OFFSET -6.676277 -0.344902 -1.011730
								CHANNELS 3 Xrotation Yrotation Zrotation
								End Site
								{
									OFFSET 0.000000 14.885353 0.000000
								}
							}
						}
					}
				}
				JOINT Backpack
				{
					OFFSET 0.000000 -2.471497 36.677502
					CHANNELS 3 Xrotation Yrotation Zrotation
					End Site
					{
						OFFSET 0.000000 20.427315 0.000000
					}
				}
				JOINT Hood
				{
					OFFSET 0.000000 18.754097 -10.431000
					CHANNELS 3 Xrotation Yrotation Zrotation
					JOINT Hood1
					{
						OFFSET 0.000000 -5.011002 -7.685901
						CHANNELS 3 Xrotation Yrotation Zrotation
						End Site
						{
							OFFSET 0.000000 9.175140 0.000000
						}
					}
				}
				JOINT LHoodieString
				{
					OFFSET 5.250500 16.397697 3.089900
					CHANNELS 3 Xrotation Yrotation Zrotation
					JOINT LHoodieString1
					{
						OFFSET 0.257700 -6.364304 3.694600
						CHANNELS 3 Xrotation Yrotation Zrotation
						JOINT LHoodieString2
						{
							OFFSET 0.000000 -9.643799 2.679100
							CHANNELS 3 Xrotation Yrotation Zrotation
							End Site
							{
								OFFSET 0.000000 10.009018 0.000000
							}
						}
					}
				}
				JOINT RHoodieString
				{
					OFFSET -5.250500 16.397697 3.089900
					CHANNELS 3 Xrotation Yrotation Zrotation
					JOINT RHoodieString1
					{
						OFFSET -0.257700 -6.364304 3.694600
						CHANNELS 3 Xrotation Yrotation Zrotation
						JOINT RHoodieString2
						{
							OFFSET 0.000000 -9.643799 2.679100
							CHANNELS 3 Xrotation Yrotation Zrotation
							End Site
							{
								OFFSET 0.000000 10.009018 0.000000
							}
						}
					}
				}
			}
			JOINT LBackpack_Strap
			{
				OFFSET 15.223200 -7.719803 -6.610900
				CHANNELS 3 Xrotation Yrotation Zrotation
				End Site
				{
					OFFSET 0.000000 16.040596 0.000000
				}
			}
			JOINT RBackpack_Strap
			{
				OFFSET -15.223000 -7.719803 -6.610900
				CHANNELS 3 Xrotation Yrotation Zrotation
				End Site
				{
					OFFSET 0.000000 16.040596 0.000000
				}
			}
		}
	}
	JOINT BoyFacialAnim_Joint
	{
		OFFSET 1.000000 -82.208099 -1.550900
		CHANNELS 3 Xrotation Yrotation Zrotation
		End Site
		{
			OFFSET 0.000000 30.012791 0.000000
		}
	}
}
MOTION
Frames: 4
Frame Time: 0.016667
-0.078549 81.173584 1.067823 -2.728702 3.573035 0.680269 -0.000000 -0.000000 0.000000 -3.686372 11.494080 5.478128 19.306643 -4.194320 0.935830 -13.149309 0.848354 -4.632719 0.000000 -0.000000 0.000000 0.000000 -0.000000 0.000000 0.000001 0.000001 0.000001 -0.648430 -4.702337 -4.552614 19.568574 -9.267601 3.906361 -14.500862 -19.066717 2.678321 0.000000 0.000000 -0.000000 0.000000 0.000000 -0.000000 0.000001 -0.000001 0.000000 -0.565591 -0.770577 -3.810375 1.149532 -0.103991 1.499583 1.152620 -0.098084 1.497723 8.457850 0.270831 0.379498 -3.010870 1.242466 1.518414 0.000001 -0.000000 0.000000 0.000001 -0.000000 0.000000 0.000001 -0.000000 0.000000 6.883883 -26.760616 -3.764301 5.911086 4.517226 -79.896384 0.000004 -18.872940 -0.000002 -18.698690 1.922924 7.511051 -1.708916 11.916056 7.382944 4.613916 16.205064 1.361376 -0.000001 -0.000000 0.000002 0.412196 2.350823 -19.887602 0.808850 3.242979 -28.002748 0.000000 -0.000001 -0.000004 0.585505 2.783223 -23.755695 0.716290 3.062843 -26.319963 -0.000000 0.000000 0.000000 0.650672 2.926628 -25.063987 1.383121 4.144257 -36.899059 0.000001 0.000000 0.000001 2.588344 6.753832 -26.641465 1.376454 0.049922 -37.011135 0.000001 0.000001 -0.000007 0.000001 0.000001 -0.000000 0.447593 -3.990810 8.744687 8.902103 19.263649 69.814109 -0.000000 13.419893 -0.000012 -28.538467 -11.177655 5.826629 -2.036768 -12.208778 -7.947293 5.412875 -17.299264 -0.815929 -0.000001 -0.000000 -0.000000 0.402314 -2.335098 19.548580 0.985296 -3.573156 30.823448 0.000000 0.000001 0.000002 0.542482 -2.697166 22.740628 1.054149 -3.685874 31.911098 -0.000001 0.000001 -0.000002 0.533152 -2.674802 22.541429 1.506285 -4.326614 38.375848 -0.000000 0.000000 0.000000 0.306501 -2.045504 17.041962 1.637527 -4.486887 40.083693 -0.000000 -0.000000 -0.000002 0.000003 0.000001 -0.000000 -0.000000 0.000000 -0.000000 -0.000000 0.000000 -0.000000 -0.000000 0.000000 -0.000000 -0.000000 0.000000 -0.000000 -0.000000 0.000000 -0.000000 -0.000000 0.000000 -0.000000 -0.000000 0.000000 -0.000000 -0.000000 0.000000 -0.000000 -0.000000 0.000000 -0.000000 -0.000000 -0.000000 0.000000 -0.000000 -0.000000 0.000000 -0.000000 -0.000000 0.000000 
-0.083958 81.171692 1.081159 -2.715002 3.561517 0.675516 0.000000 0.000000 -0.000000 -3.689827 11.496892 5.487782 19.308363 -4.187273 0.935256 -13.161518 0.850267 -4.640956 -0.000000 0.000001 -0.000000 -0.000000 0.000001 0.000000 0.000000 0.000002 -0.000000 -0.651241 -4.704096 -4.548993 19.567544 -9.266939 3.913835 -14.512571 -19.053595 2.672618 0.000000 0.000002 -0.000000 0.000000 0.000002 -0.000000 0.000002 -0.000001 0.000000 -0.564730 -0.775211 -3.811036 1.145595 -0.104598 1.502204 1.148703 -0.098714 1.500344 8.441299 0.281180 0.369448 -3.009799 1.286437 1.518970 -0.000000 0.000000 0.000000 -0.000000 0.000000 0.000000 -0.000000 0.000000 0.000000 6.880136 -26.751010 -3.764938 5.911936 4.505758 -79.903596 -0.000002 -18.867749 0.000010 -18.716270 1.935615 7.508150 -1.708915 11.916056 7.382940 4.613917 16.205068 1.361373 -0.000000 -0.000003 -0.000001 0.412528 2.351751 -19.895767 0.808929 3.243127 -28.004156 -0.000000 0.000001 -0.000000 0.585816 2.783944 -23.762232 0.716463 3.063194 -26.323209 -0.000000 -0.000001 -0.000003 0.650937 2.927205 -25.069286 1.383302 4.144500 -36.901535 -0.000000 0.000001 0.000001 2.588735 6.754085 -26.644874 1.376650 0.050174 -37.013704 -0.000001 0.000000 -0.000000 -0.000001 -0.000000 0.000000 0.447803 -3.989255 8.743097 8.906551 19.272805 69.810312 -0.000005 13.433806 0.000014 -28.531164 -11.162465 5.826417 -2.036768 -12.208776 -7.947285 5.412872 -17.299273 -0.815951 0.000000 0.000001 0.000000 0.402917 -2.336789 19.563322 0.985635 -3.573729 30.828923 -0.000000 0.000000 0.000002 0.543005 -2.698413 22.751439 1.054458 -3.686371 31.915927 -0.000001 -0.000000 0.000002 0.533451 -2.675526 22.547843 1.506549 -4.326945 38.379332 0.000000 -0.000000 0.000002 0.306657 -2.046008 17.046294 1.637643 -4.487018 40.085144 0.000001 0.000000 0.000000 0.000000 -0.000000 0.000001 -0.000000 0.000000 -0.000000 -0.000000 0.000000 -0.000000 -0.000000 0.000000 -0.000000 -0.000000 0.000000 -0.000000 -0.000000 0.000000 -0.000000 0.000000 0.000000 0.000000 -0.000000 0.000000 -0.000000 -0.000000 0.000000 -0.000000 0.000000 0.000000 0.000000 0.000000 -0.000000 0.000000 0.000000 -0.000000 0.000000 0.000000 0.000000 -0.000000 
-0.089859 81.169937 1.095167 -2.702165 3.550545 0.670300 -0.000000 -0.000000 -0.000000 -3.691854 11.500684 5.498789 19.309320 -4.181621 0.934362 -13.173785 0.852245 -4.649398 0.000000 0.000001 0.000000 0.000000 0.000001 0.000000 -0.000000 0.000001 0.000000 -0.650401 -4.705594 -4.543860 19.562850 -9.266491 3.921099 -14.523603 -19.042023 2.666301 0.000000 0.000000 0.000000 0.000000 0.000000 0.000000 0.000001 -0.000001 -0.000000 -0.562918 -0.781970 -3.811725 1.142374 -0.105479 1.505871 1.145511 -0.099612 1.504005 8.426180 0.289927 0.361756 -3.008405 1.323638 1.520888 -0.000000 -0.000000 -0.000000 -0.000000 -0.000000 -0.000000 -0.000000 -0.000000 -0.000000 6.876205 -26.741159 -3.765901 5.916044 4.497564 -79.909791 0.000001 -18.862136 0.000010 -18.729893 1.945436 7.506012 -1.708917 11.916055 7.382943 4.613917 16.205063 1.361372 -0.000000 -0.000001 0.000001 0.412732 2.352318 -19.900799 0.808949 3.243163 -28.004477 -0.000001 -0.000000 -0.000002 0.586067 2.784508 -23.767351 0.716600 3.063473 -26.325824 -0.000001 0.000000 -0.000002 0.651257 2.927887 -25.075535 1.383515 4.144783 -36.904537 -0.000000 -0.000001 0.000003 2.589487 6.754561 -26.651268 1.377006 0.050648 -37.018649 0.000001 0.000000 -0.000002 -0.000000 0.000000 0.000001 0.447137 -3.992707 8.741734 8.916821 19.279768 69.800797 -0.000002 13.450139 0.000010 -28.539993 -11.159934 5.821331 -2.036771 -12.208779 -7.947317 5.412898 -17.299368 -0.815925 -0.000000 -0.000001 0.000001 0.403549 -2.338569 19.578862 0.986002 -3.574345 30.834841 0.000001 0.000000 0.000005 0.543655 -2.699952 22.764355 1.054833 -3.686975 31.921757 0.000000 0.000000 0.000002 0.533917 -2.676647 22.557856 1.506951 -4.327447 38.384611 -0.000001 -0.000001 0.000007 0.307029 -2.047213 17.056688 1.638081 -4.487547 40.090789 -0.000001 -0.000001 0.000005 0.000001 -0.000000 -0.000001 -0.000000 0.000000 -0.000000 -0.000000 0.000000 -0.000000 -0.000000 0.000000 -0.000000 -0.000000 0.000000 -0.000000 -0.000000 0.000000 0.000000 0.000000 -0.000000 -0.000000 -0.000000 0.000000 -0.000000 -0.000000 0.000000 0.000000 0.000000 -0.000000 -0.000000 -0.000000 0.000000 -0.000000 -0.000000 0.000000 -0.000000 -0.000000 -0.000000 -0.000000 
-0.095958 81.168297 1.109880 -2.690874 3.540485 0.665323 -0.000000 -0.000000 -0.000000 -3.690694 11.504572 5.509339 19.308047 -4.176498 0.934135 -13.185439 0.854320 -4.658392 -0.000000 -0.000000 -0.000000 -0.000000 -0.000000 -0.000000 -0.000001 0.000000 0.000000 -0.646310 -4.707394 -4.537996 19.556811 -9.266574 3.928270 -14.535100 -19.032594 2.659624 -0.000000 -0.000000 -0.000000 -0.000000 -0.000000 -0.000000 -0.000002 -0.000000 -0.000000 -0.560585 -0.790423 -3.812737 1.140142 -0.106574 1.510630 1.143316 -0.100721 1.508753 8.412552 0.297273 0.355596 -3.006518 1.354628 1.523624 0.000000 0.000000 -0.000000 0.000000 0.000000 -0.000000 0.000000 0.000000 -0.000000 6.872128 -26.731021 -3.767448 5.921153 4.490966 -79.912790 -0.000008 -18.857097 -0.000018 -18.728884 1.952514 7.499021 -1.708919 11.916056 7.382945 4.613915 16.205064 1.361373 0.000001 0.000001 0.000005 0.412753 2.352368 -19.901209 0.808885 3.243041 -28.003371 0.000000 0.000001 -0.000002 0.586206 2.784809 -23.770098 0.716676 3.063625 -26.327227 -0.000000 -0.000001 -0.000002 0.651605 2.928622 -25.082249 1.383753 4.145093 -36.907788 -0.000000 -0.000001 0.000001 2.590602 6.755266 -26.660675 1.377528 0.051344 -37.025889 -0.000000 0.000001 -0.000000 0.000001 0.000000 0.000000 0.445813 -3.999973 8.740760 8.930331 19.284667 69.787403 -0.000004 13.466608 -0.000004 -28.561262 -11.168552 5.813763 -2.036767 -12.208780 -7.947258 5.412880 -17.299510 -0.816001 -0.000001 -0.000001 0.000001 0.404189 -2.340373 19.594583 0.986388 -3.574983 30.840982 0.000001 0.000000 0.000005 0.544391 -2.701704 22.778705 1.055263 -3.687660 31.928430 -0.000001 0.000000 -0.000000 0.534508 -2.678069 22.570510 1.507453 -4.328081 38.391288 -0.000000 -0.000001 0.000005 0.307577 -2.049003 17.072063 1.638682 -4.488255 40.098449 -0.000002 -0.000001 -0.000002 -0.000001 0.000000 0.000000 -0.000000 0.000000 -0.000000 -0.000000 0.000000 -0.000000 -0.000000 0.000000 -0.000000 -0.000000 0.000000 -0.000000 -0.000000 0.000000 -0.000000 -0.000000 -0.000000 -0.000000 -0.000000 0.000000 -0.000000 -0.000000 0.000000 -0.000000 -0.000000 -0.000000 -0.000000 0.000000 -0.000000 0.000000 0.000000 -0.000000 0.000000 -0.000000 -0.000000 -0.000000 
